<?xml version="1.0" encoding="utf-8"?>
<!-- Generator: Adobe Illustrator 28.0.0, SVG Export Plug-In . SVG Version: 6.00 Build 0)  -->
<svg version="1.1" id="Ebene_1" xmlns="http://www.w3.org/2000/svg" xmlns:xlink="http://www.w3.org/1999/xlink" x="0px" y="0px"
	 viewBox="0 0 283.46 283.46" style="enable-background:new 0 0 283.46 283.46;" xml:space="preserve">
<style type="text/css">
	.st0{fill:#FFFFFF;stroke:#CDCC01;stroke-miterlimit:10;}
	.st1{fill:url(#SVGID_1_);}
	.st2{fill:#020203;}
</style>
<g>
	<path class="st0" d="M142.13,53.26c-39.59-0.85-73.32,24.07-85.15,59.41c-2.77,8.26-4.34,17.09-4.51,26.3
		c-0.21,11.5,1.78,22.51,5.55,32.67c12.54,33.77,44.97,58.02,83.51,58.58c38.88,0.56,72.2-23.97,84.45-58.58
		c3.07-8.68,4.84-17.98,5.02-27.69c0.2-10.97-1.65-21.5-5.18-31.28C213.57,78.74,180.94,54.09,142.13,53.26z M141.36,183.25
		c-10.8-0.14-20.61-4.57-27.99-11.61c-8.44-8.05-13.69-19.52-13.44-32.12c0.2-10.28,4.7-19.76,11.72-26.84
		c7.64-7.71,18.27-12.6,29.73-12.5c11.36,0.1,21.74,4.9,29.32,12.5c7.75,7.76,12.58,18.46,12.51,30.09
		c-0.07,11.25-4.93,21.5-12.62,28.87C162.99,178.92,152.63,183.4,141.36,183.25z"/>
	<linearGradient id="SVGID_1_" gradientUnits="userSpaceOnUse" x1="122.7436" y1="142.1567" x2="160.0523" y2="142.1567">
		<stop  offset="0" style="stop-color:#FCF7C6"/>
		<stop  offset="0" style="stop-color:#F6D386"/>
		<stop  offset="0" style="stop-color:#936714"/>
		<stop  offset="0.3707" style="stop-color:#FCD686"/>
		<stop  offset="0.5244" style="stop-color:#FEF5A7"/>
		<stop  offset="0.7263" style="stop-color:#FFE8A9"/>
		<stop  offset="1" style="stop-color:#B9A762"/>
	</linearGradient>
	<circle class="st1" cx="141.4" cy="142.16" r="18.65"/>
</g>
<g id="support-icon">
	<path id="Icon_color" class="st2" d="M241.83,118.23v28.4c0,7.84-9.99,14.2-22.3,14.2v7.1c0,11.76-14.98,21.3-33.46,21.3h-33.46
		c-6.16,0-11.15-3.18-11.15-7.1v-3.55c0-1.96,2.5-3.55,5.58-3.55h39.03c6.16,0,11.15-3.18,11.15-7.1v-7.1
		c-6.16,0-11.15-3.18-11.15-7.1v-42.59c0-3.92,4.99-7.1,11.15-7.1v-21.3c0-19.6-24.97-35.49-55.76-35.49
		c-30.8,0-55.76,15.89-55.76,35.49v21.3c6.16,0,11.15,3.18,11.15,7.1v42.59c0,3.92-4.99,7.1-11.15,7.1H63.4
		c-12.32,0-22.3-6.36-22.3-14.2v-28.4c0-7.84,9.99-14.2,22.3-14.2v-21.3c0-27.44,34.95-49.69,78.07-49.69
		c43.11,0,78.07,22.25,78.07,49.69v21.3c5.92,0,11.59,1.5,15.77,4.16C239.48,110.86,241.83,114.47,241.83,118.23z"/>
</g>
</svg>
