<?xml version="1.0" encoding="utf-8"?>
<!-- Generator: Adobe Illustrator 28.0.0, SVG Export Plug-In . SVG Version: 6.00 Build 0)  -->
<svg version="1.1" id="Ebene_1" xmlns="http://www.w3.org/2000/svg" xmlns:xlink="http://www.w3.org/1999/xlink" x="0px" y="0px"
	 viewBox="0 0 595.28 318.06" style="enable-background:new 0 0 595.28 318.06;" xml:space="preserve">
<style type="text/css">
	.st0{fill:#FFFFFF;}
	.st1{fill:#C8D400;stroke:#C6D300;stroke-miterlimit:10;}
	.st2{fill:url(#SVGID_1_);}
	.st3{fill:url(#SVGID_00000126282580651950582480000014898294506248370357_);}
	.st4{fill:#676766;}
	.st5{fill:#CDCC01;}
	.st6{fill:url(#SVGID_00000047034050047804923160000002682462464869688225_);}
	.st7{fill:none;}
	.st8{font-family:'ElitmogSansSerif';}
	.st9{font-size:27px;}
	.st10{letter-spacing:5;}
</style>
<g>
	<path class="st0" d="M149.24,118.98c-11.82-0.25-21.89,7.19-25.43,17.74c-0.83,2.47-1.3,5.1-1.35,7.85
		c-0.06,3.43,0.53,6.72,1.66,9.75c3.74,10.08,13.43,17.33,24.94,17.49c11.61,0.17,21.56-7.16,25.22-17.49
		c0.92-2.59,1.45-5.37,1.5-8.27c0.06-3.27-0.49-6.42-1.55-9.34C170.57,126.59,160.83,119.23,149.24,118.98z M149.01,157.79
		c-3.22-0.04-6.15-1.36-8.36-3.47c-2.52-2.4-4.09-5.83-4.01-9.59c0.06-3.07,1.4-5.9,3.5-8.02c2.28-2.3,5.45-3.76,8.88-3.73
		c3.39,0.03,6.49,1.46,8.76,3.73c2.31,2.32,3.76,5.51,3.74,8.99c-0.02,3.36-1.47,6.42-3.77,8.62
		C155.47,156.5,152.37,157.84,149.01,157.79z"/>
	<path class="st1" d="M288.32,118.98c-11.82-0.25-21.89,7.19-25.43,17.74c-0.83,2.47-1.3,5.1-1.35,7.85
		c-0.06,3.43,0.53,6.72,1.66,9.75c3.74,10.08,13.43,17.33,24.94,17.49c11.61,0.17,21.56-7.16,25.22-17.49
		c0.92-2.59,1.45-5.37,1.5-8.27c0.06-3.27-0.49-6.42-1.55-9.34C309.66,126.59,299.91,119.23,288.32,118.98z M288.09,157.79
		c-3.22-0.04-6.15-1.36-8.36-3.47c-2.52-2.4-4.09-5.83-4.01-9.59c0.06-3.07,1.4-5.9,3.5-8.02c2.28-2.3,5.45-3.76,8.88-3.73
		c3.39,0.03,6.49,1.46,8.76,3.73c2.31,2.32,3.76,5.51,3.74,8.99c-0.02,3.36-1.47,6.42-3.77,8.62
		C294.55,156.5,291.46,157.84,288.09,157.79z"/>
	<path class="st0" d="M320.59,136.72c-0.34,1.34-0.53,2.73-0.56,4.15c-0.08,4.49-0.1,8.97-0.11,13.46
		c-0.01,4.73-0.01,9.46-0.07,14.2c-0.02,1.88,0.53,2.54,2.47,2.46l9.37,0.07c1.87,0.08,2.5-0.53,2.49-2.46
		c-0.04-4.75-0.05-9.51-0.04-14.26c0.01-4.08,0.03-8.17,0.08-12.25c0.02-2.09,0.96-3.92,2.38-5.36c2.29-2.34,5.84-3.66,8.82-3.4
		v-14.33C334.49,118.64,323.19,126.32,320.59,136.72z"/>
	<path class="st0" d="M350.24,136.72c-0.34,1.34-0.53,2.73-0.56,4.15c-0.08,4.49-0.1,8.97-0.11,13.46
		c-0.01,4.73-0.01,9.46-0.07,14.2c-0.02,1.88,0.53,2.54,2.47,2.46l9.37,0.07c1.87,0.08,2.5-0.53,2.49-2.46
		c-0.04-4.75-0.05-9.51-0.04-14.26c0.01-4.08,0.03-8.17,0.08-12.25c0.02-2.09,0.96-3.92,2.38-5.36c2.29-2.34,5.84-3.66,8.82-3.4
		v-14.33C364.13,118.64,352.84,126.32,350.24,136.72z"/>
	<path class="st0" d="M433.97,154.33c-0.01-5.65-0.01-11.94-0.01-17.61c0-7.42,0.02-13.75,0.05-16.1c0.02-1.84-0.43-2.53-2.34-2.45
		h-9.23c-1.84-0.08-2.49,0.56-2.47,2.45c0.01,0.72,0.01,1.85,0.02,3.29c-4.28-3-9.49-4.81-15.14-4.93
		c-11.82-0.25-21.89,7.19-25.43,17.74c-0.83,2.47-1.3,5.1-1.35,7.85c-0.06,3.43,0.53,6.72,1.66,9.75
		c3.74,10.08,13.43,17.33,24.94,17.49c5.69,0.08,10.98-1.64,15.33-4.63c-0.01,1.31-0.01,2.36-0.02,3.05
		c-0.02,1.84,0.43,2.47,2.34,2.38h9.23c1.84,0.08,2.49-0.49,2.47-2.38C434,167.98,433.98,161.71,433.97,154.33z M404.62,157.79
		c-3.22-0.04-6.15-1.36-8.36-3.47c-2.52-2.4-4.09-5.83-4.01-9.59c0.06-3.07,1.4-5.9,3.5-8.02c2.28-2.3,5.45-3.76,8.88-3.73
		c3.39,0.03,6.49,1.46,8.76,3.73c2.31,2.32,3.76,5.51,3.74,8.99c-0.02,3.36-1.47,6.42-3.77,8.62
		C411.08,156.5,407.98,157.84,404.62,157.79z"/>
	<path class="st0" d="M256.82,140.82c-0.03-1.4-0.19-2.77-0.48-4.1c-2.28-10.73-12.51-18.58-23.85-17.72
		c-5.3,0.4-9.83,2.39-13.83,5.86c-4-3.47-8.53-5.46-13.83-5.86c-11.34-0.86-21.57,6.99-23.85,17.72c-0.28,1.33-0.45,2.7-0.48,4.1
		c-0.08,4.5-0.1,9.01-0.11,13.51c-0.01,4.71-0.01,9.43-0.07,14.14c-0.02,1.88,0.53,2.54,2.46,2.45l9.36,0.07
		c1.87,0.08,2.5-0.53,2.49-2.46c-0.04-4.73-0.05-9.47-0.04-14.21c0.01-4.1,0.03-8.2,0.08-12.3c0.02-2.06,0.65-3.87,1.68-5.31
		c2.2-3.08,6.24-4.43,10.21-2.8c1.44,0.59,2.57,1.55,3.39,2.8c1.03,1.55,1.58,3.56,1.56,5.96c-0.03,3.88-0.05,7.76-0.08,11.65
		c-0.04,4.65-0.08,9.3-0.19,13.94c-0.05,2.23,0.64,2.95,2.83,2.84h9.17c2.19,0.11,2.88-0.6,2.83-2.84
		c-0.11-4.65-0.16-9.29-0.19-13.94c-0.03-3.88-0.05-7.76-0.08-11.65c-0.02-2.41,0.53-4.41,1.56-5.96c0.83-1.24,1.95-2.2,3.39-2.8
		c3.96-1.64,8.01-0.28,10.21,2.8c1.03,1.44,1.65,3.25,1.68,5.31c0.05,4.1,0.07,8.2,0.08,12.3c0.01,4.74,0,9.47-0.04,14.21
		c-0.02,1.93,0.62,2.54,2.49,2.46l9.36-0.07c1.94,0.08,2.49-0.58,2.46-2.45c-0.06-4.71-0.06-9.43-0.07-14.14
		C256.92,149.82,256.91,145.32,256.82,140.82z"/>
	<linearGradient id="SVGID_1_" gradientUnits="userSpaceOnUse" x1="282.5349" y1="145.524" x2="293.6758" y2="145.524">
		<stop  offset="0" style="stop-color:#FCF7C6"/>
		<stop  offset="0" style="stop-color:#F6D386"/>
		<stop  offset="0" style="stop-color:#936714"/>
		<stop  offset="0.3707" style="stop-color:#FCD686"/>
		<stop  offset="0.5244" style="stop-color:#FEF5A7"/>
		<stop  offset="0.7263" style="stop-color:#FFE8A9"/>
		<stop  offset="1" style="stop-color:#B9A762"/>
	</linearGradient>
	<circle class="st2" cx="288.11" cy="145.52" r="5.57"/>
	<path class="st0" d="M468.54,139.96c-0.35-0.02-13.17-0.04-13.38-0.07c-4.2-0.45-4.19-6.87,0.01-7.3c0.09-0.01,4.62-0.02,9.77-0.02
		c0.52,0,1.02-0.21,1.39-0.58l11.76-11.76c0.54-0.54,0.16-1.47-0.61-1.47h-20.42c-4.95,0-8.71,1.56-11.56,3.71
		c-8.63,6.54-8.78,19.76,0.32,25.61c2.22,1.43,4.98,2.39,8.39,2.39c0,0,12.11-0.02,12.32,0c4.37,0.46,4.38,7.16,0.01,7.64
		c-0.18,0.02-15.62,0.03-20.99,0.03c-1,0-1.81,0.81-1.81,1.81v10c0,1,0.81,1.81,1.81,1.81h19.07c4.47,0,8.05-1.32,10.89-3.24
		C487.77,160.29,483.29,140.89,468.54,139.96z"/>
</g>
<rect x="183.77" y="183.82" class="st7" width="310.3" height="29.35"/>
<text transform="matrix(1 0 0 1 188.0727 203.1543)" class="st0 st8 st9 st10">The Digital Goldmine</text>
</svg>
